<svg fill="#004850" viewBox="0 0 500 500" id="Layer_1" version="1.1" xml:space="preserve" xmlns="http://www.w3.org/2000/svg" xmlns:xlink="http://www.w3.org/1999/xlink" stroke="#004850"><g id="SVGRepo_bgCarrier" stroke-width="0"></g><g id="SVGRepo_tracerCarrier" stroke-linecap="round" stroke-linejoin="round"></g><g id="SVGRepo_iconCarrier"> <g id="map"> <g> <g> <path d="M472.1,448.4l-149.07-44.38l-146.07,43.49L27.9,403.13V51.6l149.07,44.38l146.07-43.49L472.1,96.87V448.4z M33.9,398.65 l143.07,42.6l146.07-43.49l143.07,42.59v-339l-143.07-42.6l-146.07,43.49L33.9,59.65V398.65z"></path> </g> </g> <g> <path d="M472.1,305.48l-5.32-6.53c-0.44-0.54-0.84-1.02-1.25-1.49c-1.26-1.43-2.86-2.59-4.56-3.81c-1.77-1.27-3.6-2.59-5.23-4.35 c-3.17-3.44-5.26-7.02-6.21-10.65c-1.05-4.01-0.4-7.16,0.42-10.3c0.82-3.17,0.6-5.59-0.68-7.19c-2.04-2.55-6.61-2.99-8.06-2.94 c-7.59,0.25-12.31-0.45-18.59-5.08c-4.13-3.04-12.38-1.11-17.2,2.52c-13.14,9.89-24.83,9.65-32.32,7.7 c-7.04-1.83-11.73-5.45-13-6.52c-11.24-5.76-18.85-15.27-21.45-26.81c-0.92-4.1-1.26-8.48-1-13.02c0.32-5.72,1.36-8,4.77-12.87 l0,0c0.42-0.6,1.33-2.04,0.8-2.59c-0.21-0.22-0.58-0.37-0.99-0.4c-4.3-0.34-6-2.41-6.67-4.08c-1.02-2.56-1.25-7.23,8.61-18.23 c3.51-3.91,7.47-7.85,12.85-12.75c0.64-0.58,1.32-1.13,1.98-1.66c1.04-0.83,2.12-1.7,2.8-2.53c1.57-1.93,2.51-5.13,3.35-7.96 l0.25-0.84c0.92-3.07,2.24-5.77,3.94-8c2.8-3.69,6.81-6.42,11.6-7.88c4.49-1.38,8.59-1.15,12.56-0.94 c0.88,0.05,1.78,0.1,2.69,0.13c4.32,0.16,12.48-0.37,18.65-5.52c0.33-0.28,0.68-0.57,1.03-0.87c4.72-4,12.62-10.71,20.52-4.19 c2.86,2.36,4.14,5.58,5.26,8.42c0.99,2.51,1.92,4.88,3.81,6.44c3.29,2.73,7.43,4.2,11.98,4.22c3.85,0.07,7.67-0.66,10.49-1.89 l4.2-1.83V305.48z M441.29,252.21c1.5,0,8.74,0.26,12.68,5.2c2.52,3.16,3.13,7.34,1.8,12.45c-0.77,2.95-1.04,4.88-0.42,7.28 c0.69,2.66,2.31,5.39,4.81,8.09c1.21,1.31,2.72,2.4,4.32,3.55c0.54,0.39,1.09,0.78,1.63,1.19V149.92c-3.49,0.86-6.77,1-8.73,0.99 c-5.95-0.04-11.4-1.98-15.77-5.61c-3.07-2.55-4.39-5.9-5.56-8.86c-0.98-2.48-1.82-4.62-3.49-6c-3.43-2.83-6.86-0.92-12.82,4.14 c-0.36,0.31-0.72,0.61-1.07,0.9c-5.71,4.77-13.77,7.22-22.71,6.91c-0.95-0.03-1.89-0.08-2.81-0.13 c-3.76-0.21-7.01-0.38-10.47,0.68c-3.58,1.1-6.54,3.09-8.58,5.78c-1.26,1.66-2.26,3.71-2.97,6.09l-0.24,0.82 c-0.99,3.36-2.12,7.18-4.45,10.04c-1.08,1.33-2.41,2.4-3.7,3.43c-0.62,0.49-1.2,0.96-1.69,1.41c-5.22,4.76-9.06,8.56-12.42,12.32 c-6.83,7.62-7.73,11.29-7.51,11.99c0.02,0.01,0.41,0.25,1.57,0.34c1.88,0.15,3.6,0.94,4.84,2.23c1.21,1.25,3.6,4.75-0.21,10.19 l0,0c-2.86,4.09-3.44,5.28-3.7,9.77c-0.23,3.98,0.07,7.81,0.87,11.36c2.22,9.87,8.84,18.02,18.63,22.94l0.37,0.19l0.31,0.28 c0.67,0.6,16.8,14.73,38.01-1.25c5.72-4.31,17.06-7.94,24.37-2.56c4.89,3.6,7.99,4.13,14.84,3.92 C441.05,252.22,441.14,252.21,441.29,252.21z"></path> </g> <g> <g> <path d="M395.93,231.15l-2.13-2.15c-1.18-1.19-28.85-29.44-26.92-52.44c0.61-7.34,4.12-13.36,10.41-17.89 c10.98-7.9,26.31-7.9,37.29,0l0,0c6.29,4.53,9.8,10.55,10.41,17.89c1.92,23-25.75,51.25-26.92,52.44L395.93,231.15z M395.93,158.72c-5.34,0-10.69,1.6-15.14,4.81c-4.87,3.5-7.46,7.92-7.93,13.52c-1.41,16.82,16.74,38.45,23.08,45.44 c6.33-6.99,24.49-28.62,23.08-45.44c-0.47-5.59-3.06-10.01-7.93-13.52C406.62,160.33,401.27,158.72,395.93,158.72z M395.93,196.44c-8.02,0-14.55-6.53-14.55-14.55c0-8.03,6.53-14.55,14.55-14.55s14.55,6.53,14.55,14.55 C410.49,189.92,403.96,196.44,395.93,196.44z M395.93,173.34c-4.72,0-8.55,3.84-8.55,8.55c0,4.72,3.84,8.55,8.55,8.55 s8.55-3.84,8.55-8.55C404.49,177.17,400.65,173.34,395.93,173.34z"></path> </g> </g> <g> <rect height="345.27" width="6" x="320.03" y="55.62"></rect> </g> <g> <path d="M417.21,110.29c-7.73,0-14.34-1.86-19.56-5.57c-3.33-2.37-6.12-5.79-8.08-9.89c-2.84-5.96-9.6-15.3-22.95-10.87 c-0.61,0.2-14.38,4.5-23.68-2.56c-5.58-4.24-8.22-11.44-7.83-21.41l0.15-3.86l128.62,38.29l-5.95,3.49 c-0.39,0.23-9.58,5.59-21.48,9.2C429.47,109.23,423.02,110.29,417.21,110.29z M373.3,76.78c13.13,0,19.75,11.41,21.68,15.47 c1.51,3.18,3.64,5.8,6.13,7.58c13.73,9.75,36.22,1.4,47.25-3.75L341.13,64.14c0.36,5.83,2.18,10.01,5.43,12.48 c6.74,5.11,18.08,1.67,18.19,1.64C367.86,77.22,370.71,76.78,373.3,76.78z"></path> </g> <path d="M283.49,324.47c1.1-1.31,2.35-2.8,3.4-4.62c2.88-4.98,3.91-10.15,2.99-14.96c-2.35-12.26-14.74-19.95-25.26-25.29 c-8.94-4.53-22.39-10.65-35.91-11.4c-4.02-0.22-7.11-0.51-9.99-0.94c-17.96-2.66-30.99-10.53-38.76-23.38 c-0.13-0.22-0.28-0.43-0.41-0.66l-0.25-0.42c-0.26-0.44-0.51-0.87-0.75-1.33c-1.27-2.4-2.8-5.29-4.59-8.29 c-5.87-9.84-14.58-20.92-26.46-20.33c-9.47,0.47-14.92,8.85-18.18,13.85c-2.6,3.99-6.35,5.83-12.55,6.15 c-2.83,0.15-5.5-0.59-7.73-2.12c-1.71-1.18-3.29-2.91-4.56-5c-1.03-1.69-0.8-2.74-0.34-4.82c0.3-1.35,0.67-3.03,0.61-5.04 c-0.08-2.67-0.88-5.21-2.37-7.57c-1.51-2.38-3.69-4.47-5.98-5.75c-0.55-0.3-1.14-0.6-1.75-0.91c-2.04-1.02-4.14-2.08-4.66-3.6 c-0.32-0.94,0.18-2.36,0.71-3.85c0.18-0.51,0.36-1.02,0.52-1.53l0.09-0.3c1.13-3.62,2.83-9.09-0.13-12.11 c-1.1-1.12-3.19-2.22-6.93-1.13c-3.56,1.04-6.39,2.99-9.12,4.87c-2.85,1.96-5.54,3.81-8.69,4.28c-5.22,0.78-9.25,0.1-11.06-1.88 c-1.3-1.42-1.57-3.73-0.82-6.87c1.23-5.12,3.87-10.68,6.9-14.51c6.12-7.74,12.56-11.74,19.13-11.9c9.42-0.23,16.35,7.6,16.44,7.71 c6.71,7.57,12.23,10.4,16.88,8.63c6.83-2.59,7.47-13.9,7.52-17.03c5.69-21.9,28.57-30.13,29.99-30.62 c9.93-2.59,17.18-8.96,22.54-14.73c1.66-1.79,3.14-3.52,4.46-5.07l1.54-1.8l2.29-2.67L27.9,51.6v154.45l2.51,0.42 c5.1,0.85,10.11,0.9,14.95,0.94c7.78,0.07,15.13,0.14,22.28,3.43c5.67,2.6,9.77,4.48,13.47,9.37c1.14,1.51,2.1,3.21,3.11,5.01 c1.04,1.86,2.12,3.77,3.47,5.58c3.28,4.39,8.67,10.41,15.76,14.13l0.32,0.15c5.03,1.93,11.16,5.22,11.78,9.98 c0.75,5.79-6.51,12.38-9.36,14.44l-0.15,0.11c-10.62,8.63-15.46,18.06-14.36,28.02c2.46,22.43,34.56,38.73,35.92,39.41l0.24,0.11 c9.14,3.61,14.93,8.2,16.75,13.27c1.55,4.32-0.25,7.65-0.31,7.76l-0.15,0.25l-0.1,0.28c-2.53,7.33-2.38,15.12,0.41,21.93 c1.07,2.6,2.56,4.52,4,6.37c0.71,0.91,1.37,1.77,1.99,2.69c1.52,2.31,2.65,6.23,2.88,10c0.1,1.7-0.38,2.84-1.06,4.42 c-0.52,1.22-1.11,2.59-1.44,4.34c-1.53,8.09,1.11,17.23,7.06,24.45c1.86,2.25,3.4,5.31,4.46,8.83l0.47,1.55l14.18,4.22l23.3-6.94 l0.59-1.08c0.82-1.49,1.9-2.87,3.14-3.98c1.64-1.48,3.82-2.35,6.14-3.28c1.23-0.49,2.5-1,3.75-1.63c3.27-1.63,6.1-3.73,8.85-5.75 c0.75-0.56,1.51-1.11,2.27-1.66c3.5-2.51,6.48-4.99,9.12-7.57c4.82-4.72,8.19-9.41,10.3-14.34c1.53-3.58,2.31-7.27,2.39-11.29 c0.04-1.96-0.13-3.9-0.29-5.78c-0.5-5.69-0.63-9.33,2.65-12.37c1.8-1.67,6.08-1.68,9.86-1.69c2.54-0.01,4.94-0.01,7.07-0.44 c8.8-1.78,14.6-6.02,16.76-12.25c2.02-5.83,0.25-11.15-1.32-15.84c-1.27-3.8-2.47-7.39-1.68-10.96 C280.4,328.16,281.77,326.53,283.49,324.47z M278.9,320.62c-1.89,2.26-4.04,4.82-4.9,8.75c-1.14,5.18,0.45,9.94,1.85,14.15 c1.45,4.33,2.7,8.08,1.34,11.98c-1.45,4.17-5.58,6.98-12.28,8.33c-1.54,0.31-3.66,0.32-5.89,0.32c-4.88,0.01-10.41,0.03-13.92,3.29 c-5.61,5.2-5.05,11.63-4.55,17.3c0.16,1.8,0.31,3.5,0.27,5.13c-0.07,3.24-0.69,6.2-1.91,9.05c-1.79,4.19-4.73,8.25-8.98,12.41 c-2.42,2.36-5.17,4.65-8.42,6.98c-0.79,0.56-1.56,1.14-2.34,1.71c-2.65,1.96-5.16,3.81-7.95,5.21c-1.04,0.52-2.14,0.96-3.31,1.43 c-2.7,1.08-5.48,2.2-7.92,4.39c-1.42,1.28-2.7,2.8-3.74,4.45l-16.28,4.85l-3,0.89l-3-0.89l-6.4-1.91c-1.26-3.63-3-6.84-5.07-9.35 c-4.76-5.77-6.98-13.25-5.79-19.52c0.21-1.09,0.6-2.01,1.06-3.08c0.81-1.89,1.73-4.03,1.54-7.16c-0.11-1.83-0.72-8.17-3.86-12.93 c-0.74-1.13-1.51-2.12-2.26-3.08c-1.3-1.68-2.43-3.12-3.19-4.96c-2.21-5.4-2.34-11.6-0.36-17.49c0.65-1.3,2.77-6.23,0.67-12.31 c-2.38-6.89-9.15-12.59-20.12-16.95c-1.98-1.01-30.49-16-32.54-34.64c-0.85-7.78,3.22-15.4,12.12-22.65 c1.22-0.89,13.05-9.81,11.74-20.01c-0.79-6.15-5.97-11.12-15.42-14.77c-4.7-2.51-9.52-6.88-13.59-12.33 c-1.12-1.5-2.06-3.17-3.05-4.94c-1.07-1.89-2.17-3.85-3.55-5.69l0,0c-4.61-6.1-9.77-8.47-15.75-11.21 c-8.32-3.83-16.66-3.9-24.73-3.98c-3.79-0.03-7.68-0.07-11.51-0.51l0-141.25l137.78,41.02c-5.04,5.75-12.13,12.87-21.85,15.37 l-0.18,0.05c-1.12,0.36-27.61,9.21-34.12,35.24l-0.09,0.36l0,0.37c-0.01,4.38-1.28,10.92-3.65,11.81 c-1.47,0.55-4.94-0.99-10.23-6.97c-0.35-0.4-8.55-9.76-20.55-9.76c-0.16,0-0.32,0-0.48,0.01c-8.47,0.18-16.46,4.95-23.76,14.18 c-3.59,4.54-6.59,10.83-8.03,16.83c-1.55,6.48,0.36,10.28,2.23,12.32c3.23,3.52,9.04,4.85,16.37,3.76 c4.52-0.68,7.92-3.01,11.2-5.27c2.45-1.69,4.77-3.28,7.4-4.05c0.41-0.12,0.7-0.17,0.91-0.2c0.07,0.97-0.35,2.95-1.27,5.89 l-0.1,0.31c-0.13,0.43-0.29,0.87-0.44,1.3c-0.77,2.17-1.72,4.87-0.73,7.78c1.31,3.86,4.98,5.7,7.66,7.04 c0.53,0.27,1.05,0.53,1.53,0.79c1.42,0.79,2.85,2.18,3.83,3.72c0.91,1.43,1.39,2.96,1.44,4.53c0.04,1.26-0.21,2.38-0.47,3.56 c-0.54,2.44-1.22,5.48,1.07,9.24c1.74,2.85,3.85,5.14,6.28,6.82c3.33,2.29,7.29,3.39,11.45,3.18c5.11-0.27,12.45-1.48,17.26-8.87 c3.71-5.7,7.53-10.84,13.45-11.13c11.67-0.6,20.64,16.34,25.45,25.44c0.23,0.43,0.47,0.84,0.71,1.25c0.06,0.1,0.12,0.21,0.18,0.31 l0.23,0.4c1.65,2.83,3.52,5.44,5.59,7.85c8.85,10.26,21.55,16.67,37.88,19.09c3.08,0.46,6.33,0.76,10.54,1 c12.39,0.69,25.07,6.47,33.53,10.76c9.3,4.72,20.22,11.37,22.08,21.07c0.82,4.25-0.79,8.23-2.29,10.82 C280.91,318.22,279.93,319.38,278.9,320.62z"></path> <g> <path d="M209.13,334.76c-0.61-7.34-4.12-13.36-10.41-17.89c-5.52-3.97-12.14-5.94-18.75-5.92c-2.01,0.01-4.02,0.22-6,0.59 c-4.46,0.85-8.76,2.61-12.54,5.33c-6.29,4.53-9.8,10.55-10.41,17.89c-1.5,17.98,15.08,39.17,22.95,48.13 c2.2,2.5,3.72,4.05,3.98,4.31l2.02,2.05l0.11,0.11l2.13-2.15C183.38,386.01,211.05,357.76,209.13,334.76z M180.07,380.7 c-0.03-0.04-0.07-0.08-0.11-0.12c-1.5-1.66-3.63-4.11-6-7.1c-7.76-9.8-18.05-25.4-16.97-38.22c0.47-5.59,3.06-10.01,7.93-13.52 c2.75-1.98,5.83-3.34,9.04-4.1c1.97-0.47,3.98-0.7,6-0.71c0.04,0,0.07,0,0.11,0c5.34,0,10.69,1.6,15.14,4.81 c4.87,3.5,7.46,7.92,7.93,13.52C204.56,352.08,186.41,373.71,180.07,380.7z"></path> <path d="M180.07,325.54c-0.04,0-0.07,0.01-0.11,0.01c-2.14,0.02-4.17,0.51-6,1.36c-4.98,2.31-8.45,7.35-8.45,13.19 s3.47,10.88,8.45,13.19c1.83,0.85,3.86,1.34,6,1.36c0.04,0,0.07,0.01,0.11,0.01c8.03,0,14.55-6.53,14.55-14.55 S188.1,325.54,180.07,325.54z M180.07,348.65c-0.04,0-0.07-0.01-0.11-0.01c-2.35-0.03-4.47-1.01-6-2.57 c-1.51-1.54-2.45-3.65-2.45-5.98s0.94-4.43,2.45-5.98c1.53-1.56,3.65-2.54,6-2.57c0.04,0,0.07-0.01,0.11-0.01 c4.72,0,8.55,3.84,8.55,8.55S184.79,348.65,180.07,348.65z"></path> </g> <path d="M173.97,100.22v6.86v126.12c1.79,3,3.32,5.89,4.59,8.29c0.24,0.46,0.5,0.89,0.75,1.33l0.25,0.42 c0.13,0.22,0.28,0.43,0.41,0.66V100.22H173.97z"></path> </g> </g></svg>